<?xml version="1.0" encoding="UTF-8"?><svg xmlns="http://www.w3.org/2000/svg" xmlns:xlink="http://www.w3.org/1999/xlink" viewBox="0 0 1071.02 265.25"><defs><linearGradient id="linear-gradient" x1="991.07" y1="44.64" x2="991.07" y2="256.87" gradientUnits="userSpaceOnUse"><stop offset=".04" stop-color="#fddfac"/><stop offset=".74" stop-color="#f8bc5b"/></linearGradient><linearGradient id="linear-gradient-2" x1="853.04" y1="44.74" x2="853.04" xlink:href="#linear-gradient"/><linearGradient id="linear-gradient-3" x1="721.35" y1="44.54" x2="721.35" xlink:href="#linear-gradient"/><linearGradient id="linear-gradient-4" x1="555.58" y1="43.47" x2="555.58" xlink:href="#linear-gradient"/><linearGradient id="linear-gradient-5" x1="97.02" y1="47.57" x2="97.02" y2="256.56" xlink:href="#linear-gradient"/><linearGradient id="linear-gradient-6" x1="326.55" y1="74.96" x2="326.55" y2="252.2" gradientUnits="userSpaceOnUse"><stop offset=".21" stop-color="#fe6391"/><stop offset=".85" stop-color="#e34980"/><stop offset=".87" stop-color="#e24980"/></linearGradient></defs><g id="Layer_1" opacity=".97"><g id="Logo"><path d="M961.75,256.87c-16.24,0-38.25-3.73-41.84-35.98-3.07-27.51-3.04-55.76-3.02-83.07,0-8.04.01-16.35-.06-24.48-.03-3.2-.24-6.79-.48-10.59-1.11-18.18-2.62-43.07,17.85-52.89,7.22-3.47,16.04-5.23,26.2-5.23,16.56,0,36.04,4.87,50.82,12.72,14.61,7.75,29,21.48,36.79,35.1,7.04,8.07,12.43,24.91,14.33,32.82,8.27,34.72,3.6,67.13-13.17,91.26-15.17,21.83-39.16,35.33-69.38,39.04-7.2.88-12.93,1.29-18.04,1.29h0ZM975.46,184.14c.23.05.6.11,1.17.11,4.77,0,12.98-3.74,15.16-5.65,9.9-8.67,12.8-27.34,6.75-43.44-2.25-5.97-8.85-19.39-23.22-20.98,0,.66,0,1.31-.01,1.96-.03,6.03-.07,11.73.21,18.54.35,8.65.18,17.42.01,25.9-.15,7.75-.31,15.75-.06,23.55Z" fill="url(#linear-gradient)"/><path d="M960.41,49.32c17.09,0,35.74,5.33,48.63,12.17,13.58,7.2,27.63,20.3,35.17,33.71,6.04,6.6,11.49,22.33,13.6,31.16,14.68,61.62-12.94,116.52-78.58,124.58-6.09.75-11.97,1.26-17.47,1.26-19.57,0-34.37-6.47-37.19-31.82-3.95-35.35-2.73-71.49-3.05-107.07-.15-18.89-6.68-48.95,14.72-59.22,6.98-3.35,15.37-4.77,24.18-4.77M976.64,188.93c6.19,0,15.39-4.31,18.24-6.81,22.27-19.5,10.84-72.78-22.42-72.78-.59,0-1.19.02-1.8.05,0,9.04-.19,16.12.18,25.48.67,16.7-.62,33.58-.02,50.3.51,2.74,2.81,3.76,5.82,3.76M960.41,39.96c-10.87,0-20.36,1.91-28.22,5.69-10.54,5.06-17.19,14.22-19.76,27.23-1.97,9.97-1.31,20.69-.74,30.16.23,3.73.44,7.26.47,10.33.07,8.11.06,16.41.06,24.43-.03,27.44-.05,55.82,3.05,83.6,1.61,14.51,7.02,25.25,16.06,31.91,7.52,5.54,17.47,8.23,30.42,8.23,5.31,0,11.22-.42,18.61-1.33,31.58-3.88,56.71-18.06,72.66-41.02,17.54-25.24,22.47-58.98,13.88-95.01-.23-.98-5.67-23.36-15.04-34.45-8.26-14.2-23.24-28.45-38.44-36.51-15.42-8.18-35.73-13.26-53.01-13.26h0ZM980.03,179c-.07-6.1.05-12.28.17-18.32.17-8.55.34-17.4-.01-26.19-.21-5.2-.23-9.75-.22-14.32,8.35,3.5,12.58,12.32,14.2,16.63,5.4,14.37,3.06,30.83-5.45,38.28-1.27,1.04-5.26,2.96-8.68,3.92h0Z" fill="#401202"/><path d="M856.9,256.87c-15.92,0-29.96-2.35-37.56-6.28-22.52-11.65-23.64-45.44-24.45-70.12-.14-4.28-.27-8.32-.51-11.82-.35-5.11-.76-10.44-1.16-15.59-1.66-21.36-3.38-43.46-1.83-64.51.54-7.34,2.66-25.18,10.66-32.26,10.73-9.55,35.26-11.56,53.95-11.56,9.91,0,17.59.56,21.29.9,18.75,1.7,30.71,10.56,31.99,23.69,1.11,11.26-1.44,20.25-7.39,25.99-.29.3-.67.63-1.1.98-3.51,2.94-8.32,5.07-14.7,6.5-.04,0-.09.02-.13.03-5.79,1.28-12.79,1.93-20.79,1.93-5.59,0-10.62-.31-14.17-.62v8.25c4.06-.35,10.01-.75,16.21-.75,5.35,0,9.99.3,13.81.89.65.09,1.31.21,1.97.33.69.14,1.3.27,1.9.41,9.38,2.34,20.55,9.08,20.49,27.92-.02,7.73-3.28,18.62-10.39,24.26-5.64,4.46-18.3,8.05-25.03,8.05h-13.92v14.51c5.37-.37,13.67-.82,21.57-.82,6.05,0,10.97.27,14.63.81.29.02.58.06.87.12l.14.02c.27.04.54.09.79.15.98.16,1.96.41,3,.74,8.64,2.81,14.96,10.86,17.33,22.09,2.34,11.11.59,25.98-8.57,34.16-12.03,10.75-40.46,11.58-48.89,11.58Z" fill="url(#linear-gradient-2)"/><path d="M855.99,49.42c8.18,0,15.61.4,20.87.88,11.77,1.07,26.45,6.08,27.76,19.49.77,7.76-.11,16.5-5.99,22.17-.26.26-.54.51-.82.73-3.18,2.67-7.69,4.41-12.76,5.56-.04,0-.07.02-.09.02-6.29,1.39-13.41,1.82-19.8,1.82-10.37,0-18.84-1.13-18.84-1.13v18.61s10.16-1.24,20.88-1.24c4.52,0,9.14.22,13.14.85.58.07,1.18.19,1.78.3.56.11,1.1.22,1.63.36,12.07,3.01,16.98,11.22,16.95,23.36-.02,6.96-3.01,16.16-8.62,20.61-4.66,3.69-16.33,7.03-22.13,7.03h-18.59v24.22h.04c.81-.07,13.99-1.18,26.22-1.18,5.25,0,10.33.21,14.17.79.15,0,.28.02.43.06.32.06.64.09.94.17.84.13,1.65.34,2.45.6,17.34,5.63,19.66,37.09,7.09,48.32-7.96,7.11-27.36,10.39-45.77,10.39-14.39,0-28.16-2-35.41-5.75-23.79-12.31-20.89-55.14-22.45-78.1-1.76-25.74-4.9-53.57-2.99-79.44.6-8.14,2.88-23.61,9.09-29.11,9.27-8.25,32.03-10.38,50.85-10.38M855.99,40.06c-28.37,0-47.57,4.29-57.07,12.75-8.93,7.91-11.48,25.58-12.2,35.41-1.58,21.41.15,43.69,1.83,65.23.42,5.37.81,10.45,1.16,15.54.23,3.41.36,7.41.5,11.65.85,25.83,2.02,61.21,26.98,74.12,11.86,6.14,31.72,6.8,39.71,6.8,11.34,0,39.1-1.24,52-12.77,10.56-9.43,12.64-26.18,10.03-38.61-2.72-12.92-10.18-22.24-20.46-25.58-1.22-.4-2.38-.69-3.56-.89-.39-.08-.72-.13-.96-.17h0c-.4-.08-.8-.14-1.21-.18-3.91-.56-8.87-.83-15.15-.83-5.86,0-11.93.25-16.9.53v-4.86h9.24c7.63,0,21.49-3.95,27.93-9.05,8.38-6.65,12.15-18.81,12.17-27.92.05-17.05-8.48-28.58-24.03-32.46-.71-.18-1.41-.32-2.06-.45-.04,0-.07-.01-.11-.02-.24-.05-.49-.09-.76-.14,1.32-.22,2.58-.46,3.8-.73.07-.01.15-.03.22-.05,7.1-1.6,12.54-4.03,16.64-7.45.53-.43,1-.85,1.44-1.29,6.97-6.77,10-17.06,8.74-29.76-.89-9.1-5.93-16.56-14.59-21.56-7.42-4.28-15.86-5.81-21.63-6.33-3.78-.34-11.62-.92-21.71-.92h0Z" fill="#401202"/><path d="M687.98,256.87c-1.95,0-4.05-.1-6.62-.3-28.64-2.28-28.61-34.14-28.6-53.18,0-3.59,0-6.98-.17-9.64-1.17-18.18-1.58-35.56-2.03-53.95l-.17-6.95c-.03-1.17-.07-2.56-.11-4.12-.79-27.93-.71-55,5.16-63.83.23-.34.47-.68.72-1.02.04-.05.08-.1.12-.15.54-.67,1.14-1.34,1.79-2,.2-.21.42-.43.64-.64l.25-.25c1.08-1.04,2.25-2.06,3.28-2.86l.94-.77c6.69-5.65,15.67-9.27,27.43-11.08,6.86-1.05,13.48-1.59,19.7-1.59,20.74,0,38.37,5.96,52.4,17.7,13.5,11.31,21.18,26.93,21.64,44,.46,17.23-6.82,34.16-19.97,46.45-.17.16-.36.31-.55.44l-5.38,3.68c2.48,3.21,5.44,7.13,8.45,11.35.77,1.08,1.56,2.19,2.32,3.29,2.47,3.58,4.63,6.86,6.6,10.04.5.78,1.01,1.63,1.52,2.48,1.6,2.63,3.08,5.24,4.45,7.81l.41.78c.39.74.77,1.48,1.15,2.23.55,1.07,1.15,2.3,1.74,3.61.31.63.59,1.27.88,1.9.24.53.48,1.08.71,1.63l.19.44c.27.64.59,1.37.87,2.14.33.81.63,1.61.93,2.41.39,1.06.73,2.05,1.04,3.02.24.74.46,1.45.67,2.18l.1.35c.22.77.43,1.53.61,2.28.24.93.42,1.73.57,2.48.12.51.2.99.28,1.46.07.3.12.59.15.89.03.16.06.33.08.5.02.11.04.22.05.33.09.51.15,1.01.2,1.49v.03c.04.28.07.55.1.83.08.68.12,1.31.16,1.97,0,.07,0,.14,0,.21.05.74.08,1.51.08,2.37,0,1.52-.09,3.03-.26,4.49-.05.43-.1.84-.18,1.25l-.11.56c-.11.58-.24,1.13-.38,1.63-.34,1.24-.84,2.58-1.47,3.91-.21.45-.42.87-.66,1.29-.09.17-.19.35-.3.54-.03.05-.06.1-.08.15-.26.46-.55.9-.83,1.34-.3.47-.63.92-1,1.39-.25.34-.53.69-.82,1.03-.09.11-.46.54-.46.54-.32.38-.6.68-.9.98-.42.44-.81.83-1.21,1.18-.39.36-.81.72-1.21,1.07-.28.24-.57.48-.88.71-.34.28-.67.53-1.01.75l-.04.03c-.32.22-.63.44-.96.67-.4.26-.78.49-1.15.72-.68.41-1.26.72-1.85,1.01-.45.23-.97.46-1.51.7-.02,0-.11.05-.13.06-.42.18-.85.36-1.27.52-.06.03-.47.16-.47.16-.52.19-1.05.36-1.57.5-.39.12-.78.23-1.16.31-.76.19-1.49.33-2.17.44-1.76.28-3.55.42-5.29.42h0c-27.63,0-40.6-34.78-49.18-57.79-.08-.21-.15-.41-.23-.61,0,2.28,0,4.56.03,6.81.04,2.8.23,5.74.43,8.84.6,9.37,1.28,19.98-2.19,29.47-5.33,14.49-19.62,14.49-24.31,14.49ZM707.54,126.18c.7.07,1.4.11,2.1.11,8.51,0,14.87-5.13,16.76-10.2,1.52-4.09.28-8.02-3.59-11.36-1.25-1.08-5.17-2.24-10.83-2.24-1.76,0-3.54.11-5.26.32-.08,6.1.16,17.02.83,23.37Z" fill="url(#linear-gradient-3)"/><path d="M710.31,49.22c17.94,0,35,4.56,49.4,16.61,26.17,21.92,26.62,59.97,1.48,83.45l-9.48,6.49c3.39,4.3,7.35,9.45,11.39,15.11.77,1.07,1.53,2.15,2.28,3.24,2.19,3.16,4.38,6.45,6.47,9.84.52.82,1.03,1.66,1.53,2.51,1.5,2.47,2.94,4.99,4.28,7.52.51.97,1.01,1.93,1.5,2.9.6,1.16,1.16,2.34,1.68,3.5.3.62.58,1.23.86,1.85.3.65.58,1.33.86,1.98.28.65.56,1.31.8,1.98.34.82.64,1.63.94,2.43.34.92.65,1.85.95,2.77.22.69.43,1.37.64,2.06.22.8.45,1.59.64,2.38.21.8.39,1.59.54,2.38.11.47.19.92.26,1.38.06.22.09.45.11.69.04.17.07.36.09.54t0,.04c.02.06.04.13.04.19.09.52.15,1.03.21,1.52.04.22.06.45.07.67.07.62.11,1.2.15,1.8v.09c.06.75.07,1.48.07,2.19,0,1.33-.07,2.66-.22,3.95-.04.32-.07.62-.13.92-.04.19-.07.37-.11.58-.07.39-.17.8-.28,1.2-.3,1.1-.71,2.17-1.2,3.2-.17.36-.34.69-.52,1.03-.11.21-.22.41-.36.62v.02c-.22.39-.47.77-.71,1.14s-.51.73-.79,1.08c-.21.28-.43.56-.67.84-.17.21-.34.39-.51.6-.21.24-.41.47-.64.69-.32.34-.65.67-1.01.99-.34.32-.71.64-1.07.94-.24.21-.49.41-.75.6-.24.21-.49.39-.75.56-.32.22-.64.45-.97.67-.32.21-.65.41-.99.62-.47.28-.94.54-1.44.79-.45.22-.9.43-1.37.64-.39.17-.79.34-1.18.49-.11.04-.22.07-.34.11-.47.17-.94.32-1.4.45-.28.09-.56.17-.84.22-.6.15-1.22.28-1.83.37-1.58.25-3.1.37-4.59.37-28.52,0-40.12-44.09-48.8-65.16-1.18-2.86-2.99-7.26-5.2-9.37.13,9.2-.19,18.46-.06,27.68.19,11.62,2.71,25.2-1.48,36.64-3.44,9.35-11.35,11.42-19.92,11.42-2.06,0-4.16-.12-6.25-.29-29.11-2.32-23.36-41.28-24.47-58.45-1.31-20.41-1.68-40.31-2.19-60.72-.32-13.43-2.15-55.59,4.26-65.24.19-.28.39-.56.6-.84.45-.56.95-1.12,1.5-1.66.26-.28.56-.56.84-.84,1.07-1.03,2.13-1.93,2.88-2.51.34-.28.69-.56,1.03-.84,6.96-5.87,16.11-8.66,25.14-10.04,6.38-.98,12.74-1.53,18.99-1.53M709.64,130.96c17.4,0,29.95-17.94,16.22-29.78-2.62-2.26-8.03-3.37-13.88-3.37-3.26,0-6.67.35-9.8,1.04-.36,4.45-.13,24.52,1.22,31.35,2.13.53,4.22.77,6.25.77M710.31,39.86c-6.45,0-13.32.55-20.41,1.64-12.62,1.93-22.34,5.9-29.73,12.12-.13.11-.27.22-.4.33-.16.13-.32.26-.48.39-.72.57-2.04,1.64-3.52,3.07-.04.04-.08.08-.12.12l-.21.21c-.25.24-.5.49-.73.73-.75.76-1.45,1.54-2.09,2.34-.08.1-.16.21-.24.31-.29.39-.58.79-.84,1.18-6.25,9.4-6.91,32.44-5.94,66.55.04,1.56.08,2.94.11,4.1l.17,6.97c.44,18.44.86,35.86,2.04,54.13.16,2.51.16,5.83.16,9.34,0,10.07-.02,22.61,3.46,33.51,5.95,18.64,19.3,23.52,29.45,24.33,2.7.22,4.92.32,6.99.32,14.76,0,24.42-5.9,28.7-17.54,2.46-6.73,3.04-13.76,2.97-20.53,2.25,4.74,4.75,9.39,7.56,13.7,10.04,15.37,22.23,23.17,36.22,23.17,1.97,0,4-.16,6.01-.48.8-.12,1.62-.29,2.49-.5.49-.11.99-.24,1.48-.39.58-.17,1.16-.35,1.74-.56l.24-.08c.12-.04.25-.09.37-.13.57-.22,1.08-.43,1.53-.63.03-.01.06-.03.09-.04.65-.29,1.2-.54,1.72-.8.69-.34,1.37-.71,2.13-1.16.02-.01.04-.03.06-.04.41-.25.81-.5,1.2-.75.04-.02.07-.05.11-.07.36-.24.71-.48,1.05-.72.42-.28.83-.58,1.25-.92.42-.32.76-.6,1.02-.83.4-.34.87-.74,1.36-1.19.46-.41.92-.86,1.39-1.36.37-.37.72-.76,1.06-1.16.03-.04.07-.08.1-.12l.12-.14c.1-.12.2-.23.3-.35.34-.4.66-.8.96-1.2.44-.57.83-1.11,1.19-1.66.28-.43.63-.97.99-1.6.04-.06.07-.13.11-.19.13-.23.24-.43.33-.59.26-.47.51-.96.78-1.52.74-1.57,1.33-3.15,1.76-4.7.17-.62.33-1.27.46-1.95,0-.03,0-.05.01-.08.03-.14.05-.26.08-.39,0-.03.02-.1.03-.13.11-.59.18-1.11.23-1.55.19-1.66.29-3.35.29-5.04,0-.92-.03-1.77-.08-2.59,0-.09,0-.19-.01-.28-.04-.59-.08-1.32-.18-2.15-.02-.26-.05-.59-.11-.97-.05-.45-.12-.99-.22-1.6,0,0,0,0,0,0-.03-.21-.06-.41-.1-.62-.01-.08-.03-.17-.04-.24-.05-.35-.1-.69-.18-1.04-.08-.47-.17-.99-.3-1.55-.16-.81-.35-1.64-.61-2.67-.2-.84-.42-1.61-.63-2.35l-.08-.29c-.01-.05-.03-.1-.04-.15-.23-.77-.46-1.51-.7-2.28-.38-1.17-.73-2.18-1.07-3.11-.31-.84-.62-1.68-.99-2.57-.31-.85-.64-1.62-.93-2.29l-.18-.43c-.25-.59-.5-1.18-.77-1.76-.29-.64-.58-1.28-.89-1.93-.61-1.36-1.21-2.59-1.82-3.77-.38-.75-.77-1.5-1.16-2.25l-.38-.72s-.03-.06-.05-.09c-1.41-2.65-2.94-5.33-4.54-7.97-.5-.83-1.03-1.72-1.61-2.63-2-3.23-4.2-6.57-6.71-10.2-.73-1.06-1.53-2.2-2.38-3.37-1.9-2.66-3.77-5.2-5.53-7.53l1.31-.9c.39-.27.76-.56,1.1-.88,14.14-13.2,21.96-31.42,21.46-49.99-.5-18.43-8.77-35.28-23.31-47.46-14.9-12.47-33.54-18.79-55.41-18.79h0ZM711.38,107.16c.2,0,.4,0,.6,0,4.69,0,7.25.86,7.89,1.21,2.94,2.59,2.7,4.62,2.15,6.09-1.13,3.05-4.97,6.27-10.17,7-.28-4.45-.43-9.87-.46-14.29h0Z" fill="#401202"/><path d="M611.38,256.87c-25.4,0-33.47-23.09-37.33-40.46-.41-1.84-.85-5.08-1.36-8.84-.49-3.57-1.25-9.25-1.83-11.61-.34-.09-.85-.19-1.58-.27-2.95-.34-9.24-.56-15.66-.56-6,0-11.03.19-13.45.51l-.33.04c-.7,2.61-1.39,8.67-1.75,11.8-.33,2.94-.6,5.26-.9,6.71-7.24,34.56-24.59,41.82-37.88,41.82-3.67,0-7.6-.54-11.67-1.62-13.13-3.45-20.29-10.81-23.22-23.87-5.64-25.18,9.78-73.23,18.06-99.04l.38-1.18c8.51-26.5,26.22-81.65,65.51-86.4,2.35-.28,4.68-.43,6.94-.43,38.39,0,54.47,41.6,64.08,66.46,10.24,26.56,19.59,57.26,24.4,80.13l.08.36c4.49,21.3,11.99,56.95-20.32,64.87-4.3,1.05-8.39,1.58-12.15,1.58h0ZM543.63,137.13c1.22.46,4.49,1.19,10.83,1.19,5.79,0,10.65-.61,13.37-1.2-.28-8.72-8.46-30.66-12.76-32.95-.12-.03-.18-.03-.19-.03h0c-.56.25-1.78,2.26-2.44,3.34l-.52.84c-3.77,6.12-9.14,23.95-8.3,28.79Z" fill="url(#linear-gradient-4)"/><path d="M555.31,48.15c33.98,0,48.79,35.21,59.71,63.47,9.18,23.81,18.95,54.49,24.19,79.4,4.47,21.23,11.3,52.84-16.78,59.73-4.03.98-7.7,1.45-11.04,1.45-19.9,0-28.23-16.41-32.77-36.8-.97-4.36-2.47-20-3.82-22.33-.8-1.4-3.46-1.85-5.01-2.02-3.29-.38-9.83-.59-16.17-.59-5.68,0-11.19.17-14.06.55-1.16.15-2.08.15-3.07.95-2.13,1.72-3.03,17.28-3.87,21.27-4.21,20.08-13.34,38.11-33.3,38.11-3.21,0-6.69-.47-10.49-1.46-11.24-2.96-17.28-8.96-19.85-20.37-5.44-24.32,10.42-73.1,18.33-97.77,9.32-29.01,26.51-78.94,61.62-83.18,2.2-.27,4.32-.4,6.37-.4M554.47,143c7.29,0,15.04-.97,17.69-2.37,2.19-8.04-8.29-38.7-15.68-40.91-.57-.17-1.1-.25-1.6-.25-3.35,0-5.16,3.53-6.93,6.4-3.63,5.89-11.32,28-8.36,33.91,1.15,2.3,7.8,3.21,14.87,3.21M555.31,38.79c-2.44,0-4.97.16-7.5.46-18.3,2.21-34.25,14.6-47.4,36.82-9.69,16.36-16.29,35.04-21.99,52.78l-.38,1.18c-8.42,26.24-24.09,75.08-18.17,101.5,3.32,14.78,11.77,23.48,26.6,27.37,4.46,1.17,8.79,1.77,12.86,1.77,15.02,0,34.57-7.9,42.46-45.54.35-1.65.62-4.07.97-7.14.23-1.99.61-5.34,1.01-7.98,2.28-.13,5.57-.22,9.86-.22,5.12,0,10.11.14,13.28.37.42,2.57.87,5.87,1.16,8.02.52,3.86.98,7.2,1.43,9.24,2.93,13.16,6.85,22.61,12.35,29.73,7.38,9.55,17.32,14.39,29.55,14.39,4.14,0,8.6-.58,13.26-1.71,11.26-2.76,25.19-10.61,27.65-32.32,1.45-12.83-1.49-26.82-3.86-38.05l-.08-.36c-4.85-23.09-14.28-54.07-24.61-80.84-10.04-25.98-26.84-69.46-68.44-69.46h0ZM548.46,133.35c.85-5.82,4.17-16.18,6.7-21.19,1.3,2.4,2.86,5.82,4.43,10.3,1.53,4.38,2.45,8.03,2.96,10.76-2.24.24-5.01.43-8.08.43-2.56,0-4.54-.13-6.01-.3h0Z" fill="#401202"/><path d="M152.83,256.87c-25.4,0-33.47-23.09-37.33-40.46-.41-1.84-.85-5.08-1.36-8.84-.49-3.57-1.26-9.25-1.83-11.61-.34-.09-.85-.19-1.58-.27-2.95-.34-9.24-.56-15.66-.56-6,0-11.03.19-13.45.51l-.33.04c-.7,2.61-1.39,8.68-1.75,11.8-.33,2.94-.6,5.26-.9,6.71-7.24,34.56-24.6,41.82-37.88,41.82-3.67,0-7.6-.54-11.67-1.62-13.13-3.45-20.29-10.81-23.22-23.87-5.64-25.18,9.78-73.23,18.06-99.05l.38-1.18c8.51-26.5,26.22-81.65,65.51-86.4,2.35-.28,4.68-.43,6.94-.43,38.39,0,54.47,41.6,64.08,66.46,10.24,26.56,19.59,57.26,24.4,80.13l.08.36c4.49,21.3,11.99,56.95-20.32,64.87-4.3,1.05-8.39,1.58-12.15,1.58h0ZM85.08,137.13c1.22.46,4.49,1.19,10.83,1.19,5.78,0,10.64-.61,13.37-1.2-.28-8.72-8.45-30.66-12.76-32.95-.12-.03-.18-.03-.19-.03h0c-.56.25-1.78,2.26-2.44,3.34l-.52.84c-3.77,6.12-9.14,23.95-8.3,28.79Z" fill="url(#linear-gradient-5)"/><path d="M96.75,48.15c33.98,0,48.79,35.21,59.71,63.47,9.18,23.81,18.95,54.49,24.19,79.4,4.47,21.23,11.3,52.84-16.78,59.73-4.03.98-7.7,1.45-11.04,1.45-19.9,0-28.23-16.41-32.77-36.8-.97-4.36-2.47-20-3.82-22.33-.8-1.4-3.46-1.85-5.01-2.02-3.29-.38-9.83-.59-16.17-.59-5.68,0-11.19.17-14.06.55-1.16.15-2.08.15-3.07.95-2.13,1.72-3.03,17.28-3.87,21.27-4.21,20.08-13.34,38.11-33.3,38.11-3.21,0-6.69-.47-10.49-1.46-11.24-2.96-17.28-8.96-19.85-20.37-5.44-24.32,10.42-73.1,18.33-97.77,9.32-29.01,26.51-78.94,61.62-83.18,2.2-.27,4.32-.4,6.37-.4M95.91,143c7.29,0,15.04-.97,17.69-2.37,2.19-8.04-8.29-38.7-15.68-40.91-.57-.17-1.1-.25-1.6-.25-3.35,0-5.16,3.53-6.93,6.4-3.63,5.89-11.32,28-8.36,33.91,1.15,2.3,7.8,3.21,14.87,3.21M96.75,38.79c-2.44,0-4.97.16-7.5.46-18.3,2.21-34.25,14.6-47.4,36.82-9.69,16.36-16.29,35.04-21.99,52.78l-.38,1.18C11.06,156.29-4.61,205.13,1.3,231.54c3.32,14.78,11.77,23.48,26.6,27.37,4.46,1.17,8.79,1.77,12.86,1.77,15.02,0,34.57-7.9,42.46-45.54.35-1.65.62-4.07.97-7.14.23-1.99.61-5.34,1.01-7.98,2.28-.13,5.57-.22,9.86-.22,5.12,0,10.11.14,13.28.37.42,2.57.86,5.87,1.16,8.02.52,3.86.98,7.2,1.43,9.24,2.93,13.16,6.85,22.61,12.35,29.73,7.38,9.55,17.32,14.39,29.55,14.39,4.14,0,8.6-.58,13.26-1.71,11.26-2.76,25.19-10.61,27.65-32.32,1.45-12.83-1.49-26.82-3.86-38.05l-.08-.36c-4.85-23.09-14.28-54.07-24.61-80.84-10.04-25.98-26.84-69.46-68.44-69.46h0ZM89.91,133.35c.85-5.82,4.17-16.18,6.7-21.19,1.3,2.4,2.86,5.82,4.43,10.3,1.53,4.38,2.45,8.03,2.96,10.76-2.24.24-5.01.43-8.08.43-2.56,0-4.54-.13-6.01-.3h0Z" fill="#401202"/><g id="Lights"><path d="M59.96,79.43c7.57-14.18,24.36-26.81,41.08-21.66,2.33.66,4.47,1.8,6.44,3.09.55.36.7,1.09.34,1.64-.28.43-.79.61-1.26.5-4.37-.81-8.51-1.36-12.6-.99-12.95.83-23.76,9.32-32.44,18.45-.69.85-2.08-.05-1.56-1.03h0Z" fill="#fff7f0"/><path d="M522.84,79.43c7.57-14.18,24.36-26.81,41.08-21.66,2.33.66,4.47,1.8,6.44,3.09.55.36.7,1.09.34,1.64-.28.43-.79.61-1.26.5-4.37-.81-8.51-1.36-12.6-.99-12.95.83-23.76,9.32-32.44,18.45-.69.85-2.08-.05-1.56-1.03h0Z" fill="#fff7f0"/><path d="M664.95,87.7c-1.48-9.53.44-18.51,9.25-23.78,10.8-5.74,23.16-8.52,35.33-6.99,6.86.81,13.4,2.68,19.77,4.86.36.12.56.52.43.88-.11.32-.43.51-.75.46-6.67-.88-13.25-2-19.76-2.23-9.78-.47-19.36,1.55-28.35,5.23-5.84,1.95-10.82,5.86-12.58,11.94-.87,2.97-1.16,6.42-1.47,9.58-.09,1.1-1.72,1.15-1.87.05h0Z" fill="#fff7f0"/><path d="M806.92,78.71c.77-9.76,7.05-17.97,16.76-20.27,2.77-.7,6.19-.69,8.92-.94,5.74-.41,11.48-.71,17.24-.93,5.75-.19,11.51-.33,17.29-.21.52.01.93.44.92.96-.01.45-.34.83-.77.9-11.35,2-22.78,3.26-34.24,4.28-2.37.26-5.94.37-8.2.89-6.35,1.36-11.77,5.97-14.37,11.91-.58,1.26-1.13,2.65-1.76,3.95-.23.47-.79.67-1.26.44-.38-.18-.59-.59-.53-.99h0Z" fill="#fff7f0"/><path d="M931.62,81.72c1.06-18.32,20.93-29.83,37.75-23.79.98.35.71,1.86-.33,1.83-6.72-.07-13.27.99-19.17,4.05-4.05,2.09-7.58,5.05-10.49,8.62-2.33,2.88-4.25,6.15-5.94,9.72-.41.93-1.87.58-1.82-.43h0Z" fill="#fff7f0"/></g><g id="M"><path d="M410.38,239.93c-18.76,14.67-49.92,20.56-45.89-12.38,2.99-24.5,36.84-74.67,30.77-95-6.38-21.3-23.53,16.15-26.74,20.86-10.39,15.28-28.14,44.43-50.5,35.9-20.14-7.66-38.27-62.7-48.34-65.31-12.4-3.22-8.51,19.93-7.09,25.86,6.02,25.04,35.6,70.07,28.04,93.12-4.84,14.74-28.41,8.61-38.84,3.26-32.11-16.49-60.95-69.83-68.91-104.14-4.08-17.58-5.67-38.81-3.04-58.85,4.62,5.02,8.67,6.01,10.6,6.28,4.63.65,11.89-.78,17.79-3.33,3.97-1.7,7.09-3.83,10.49-2.57,2.73,1,4.13,3.54,4.44,4.15,2.72,5.11-1.33,8.72-.15,15.11.82,4.41,4.09,10,9.7,11.61,5.3,1.52,10.81-1.04,13.86-4.49,3.28-3.71,3.54-8.2,3.65-10.92.47-10.81-6.44-15.32-3.99-19.96,2.56-4.82,12.29-4.19,13.88-4.08,8.5.55,14.18,4.96,18.95,8.17,10.97,7.36,24.59,16.64,37.44,15.52,16.74-1.44,21.81-18.74,34.09-15.4,5.08,1.37,9.89,4.85,19.59,5.8,1.57.16,3.28.05,5.3-.48,4.47-1.15,16.85-7.22,21.34-8.6.24-.11,4.86-2.17,9.07.65,2.95,1.97,4.51,5.55,3.97,9.13,0,.43-1.37,7.11-1.48,7.7-.64,3.26-1.9,9.7.59,15.41.33.76,4.14,9.23,11.85,9.78,6.49.45,11.58-4.96,13.64-9.19,2.07-4.26,1.65-8.56,1.14-14.02-.92-9.57-2.91-12.94-1.14-14.42,2.24-1.89,6.67,2.72,17.37,5.17,5.28,1.21,9.98,2.3,14.63.47,3.22-1.26,5.57-3.6,7.27-6.1,6,55.35-22.23,123.11-63.37,155.29Z" fill="url(#linear-gradient-6)"/><path d="M473.75,84.65c-1.7,2.5-4.05,4.84-7.27,6.1-4.65,1.84-9.35.75-14.63-.47-10.7-2.45-15.13-7.05-17.37-5.17-1.78,1.48.22,4.85,1.14,14.42.51,5.46.93,9.76-1.14,14.02-2.06,4.24-7.15,9.65-13.64,9.19-7.71-.55-11.52-9.02-11.85-9.78-2.49-5.72-1.22-12.16-.59-15.41.11-.59,1.48-7.27,1.48-7.7.54-3.59-1.02-7.16-3.97-9.13-4.21-2.82-8.83-.76-9.07-.65-4.49,1.37-16.87,7.44-21.34,8.6-2.02.53-3.73.64-5.3.48-9.7-.95-14.51-4.43-19.59-5.8-12.28-3.34-17.35,13.96-34.09,15.4-12.86,1.11-26.47-8.17-37.44-15.52-4.78-3.21-10.46-7.62-18.95-8.17-1.59-.11-11.33-.75-13.88,4.08-2.45,4.64,4.46,9.15,3.99,19.96-.11,2.72-.37,7.21-3.65,10.92-3.05,3.45-8.56,6.01-13.86,4.49-5.61-1.6-8.88-7.2-9.7-11.61-1.19-6.39,2.87-10,.15-15.11-.32-.61-1.71-3.15-4.44-4.15-3.4-1.26-6.53.87-10.49,2.57-5.9,2.55-13.16,3.98-17.79,3.33-1.93-.27-5.99-1.26-10.6-6.28,4.7-35.86,22.94-67.98,64.76-68.8,24.73-.49,46.21,11.95,61.67,30.32,4.49,5.34,18.39,29.94,21.71,30.51,3.94.67,18.63-27.03,23.04-32.38C386,.51,447.75,2.68,467.79,58.17c3.01,8.33,4.97,17.24,5.96,26.48Z" fill="#fff7f0"/><path d="M174.82,75.33c6.69,12.06,13.48,13.83,16.17,14.21,4.63.65,11.89-.79,17.8-3.33,3.96-1.7,7.08-3.83,10.49-2.57,2.73,1,4.12,3.54,4.45,4.15,2.71,5.11-1.34,8.72-.15,15.11.82,4.4,4.09,10,9.7,11.61,5.29,1.52,10.8-1.04,13.86-4.5,3.27-3.7,3.53-8.21,3.65-10.92.46-10.81-6.45-15.32-3.99-19.95,2.55-4.82,12.29-4.19,13.88-4.08,8.5.56,14.18,4.96,18.95,8.16,10.97,7.36,24.59,16.64,37.45,15.53,16.73-1.44,21.81-18.75,34.08-15.41,5.08,1.38,9.89,4.85,19.6,5.81,1.56.15,3.28.04,5.3-.48,4.47-1.15,16.85-7.23,21.34-8.59.25-.12,4.87-2.17,9.07.64,2.95,1.97,4.5,5.55,3.97,9.14,0,.43-1.37,7.11-1.48,7.71-.64,3.26-1.9,9.69.59,15.41.33.76,4.13,9.23,11.85,9.78,6.48.46,11.58-4.96,13.63-9.19,2.07-4.26,1.66-8.56,1.14-14.02-.91-9.57-2.91-12.94-1.14-14.42,2.24-1.88,6.68,2.72,17.37,5.17,5.28,1.21,9.98,2.29,14.63.46,7.7-3.04,10.49-12.2,11.26-15.11" fill="none" stroke="#401202" stroke-linecap="round" stroke-linejoin="round" stroke-width="7.35"/><path d="M408.98,13.54c24.6,0,47.89,14.4,58.81,44.62,21.03,58.2-9.41,144.23-57.42,181.78-8.72,6.82-20.13,11.74-29.43,11.74-10.7,0-18.61-6.51-16.46-24.12,3-24.5,36.85-74.68,30.77-95-1.39-4.65-3.3-6.5-5.46-6.5-7.74,0-18.76,23.68-21.27,27.37-9.11,13.39-23.86,37.43-42.43,37.43-2.62,0-5.31-.48-8.08-1.53-20.14-7.67-38.27-62.71-48.34-65.31-.8-.21-1.53-.3-2.2-.3-9.71,0-6.22,20.62-4.89,26.16,6.02,25.05,35.61,70.08,28.04,93.13-2.25,6.86-8.57,9.2-15.72,9.2-8.21,0-17.54-3.08-23.11-5.94-32.12-16.49-60.95-69.83-68.91-104.14-11.37-49.04-3.47-126.37,61.72-127.66.47,0,.94-.01,1.4-.01,24.15,0,45.1,12.31,60.27,30.33,4.49,5.33,18.39,29.94,21.71,30.51.05,0,.1.01.15.01,4.15,0,18.54-27.11,22.9-32.4,15.92-19.3,37.4-29.36,57.96-29.36M408.98.51c-25.34,0-50.12,12.43-68,34.09-1.99,2.41-4.33,6.2-8.29,12.68-1.13,1.86-2.73,4.47-4.4,7.12-1.08-1.68-2.12-3.31-3-4.68-4.22-6.62-6.92-10.8-9.06-13.34C297.25,13.83,272.31,1.41,246,1.41c-.55,0-1.11,0-1.66.02-23.84.47-43.68,10.01-57.38,27.61-24.84,31.9-24.56,82.43-16.77,116.02,7.85,33.85,37.32,93.11,75.65,112.79,6.95,3.57,18.23,7.38,29.06,7.38,14.07,0,24.31-6.62,28.1-18.16,6.5-19.78-5.03-45.69-16.18-70.75-.67-1.51-1.34-3.02-2-4.5,8.09,13.41,17.28,25.4,28.55,29.69,4.15,1.58,8.43,2.39,12.72,2.39,20.76,0,35.69-17.82,46.31-32.99-1.58,3.59-3.23,7.22-4.85,10.81-7.45,16.45-14.48,31.98-15.99,44.28-1.53,12.52.84,22.42,7.04,29.42,5.39,6.09,13.12,9.3,22.35,9.3,11.84,0,25.84-5.42,37.45-14.51,25.34-19.82,46.83-52.38,58.95-89.35,12.7-38.72,13.66-76.77,2.69-107.12-6.07-16.79-16.07-30.55-28.92-39.8-12.22-8.78-26.79-13.43-42.14-13.43h0Z" fill="#401202"/></g></g></g></svg>