<?xml version="1.0" encoding="UTF-8"?><svg id="Layer_1" xmlns="http://www.w3.org/2000/svg" xmlns:xlink="http://www.w3.org/1999/xlink" viewBox="0 0 2395.5 2195.29"><defs><linearGradient id="linear-gradient" x1="1250.91" y1="691.26" x2="1250.91" y2="1092.52" gradientUnits="userSpaceOnUse"><stop offset=".21" stop-color="#fe6391"/><stop offset=".85" stop-color="#e34980"/><stop offset=".87" stop-color="#e24980"/></linearGradient></defs><g id="M"><path d="M1440.69,1064.76c-42.47,33.21-113.01,46.54-103.89-28.02,6.76-55.47,83.41-169.06,69.66-215.08-14.44-48.23-53.28,36.56-60.54,47.23-23.53,34.59-63.7,100.59-114.34,81.27-45.6-17.35-86.65-141.95-109.44-147.86-28.08-7.29-19.27,45.13-16.05,58.54,13.64,56.69,80.61,158.64,63.48,210.84-10.95,33.37-64.31,19.49-87.93,7.37-72.71-37.34-137.99-158.09-156.01-235.78-9.23-39.81-12.83-87.87-6.87-133.25,10.45,11.37,19.63,13.61,24.01,14.22,10.48,1.47,26.92-1.77,40.28-7.54,8.98-3.85,16.05-8.68,23.76-5.82,6.18,2.27,9.34,8.01,10.06,9.4,6.15,11.56-3.02,19.74-.33,34.21,1.86,9.98,9.26,22.65,21.95,26.28,12,3.44,24.48-2.36,31.38-10.17,7.43-8.4,8.01-18.57,8.26-24.73,1.05-24.48-14.58-34.68-9.04-45.18,5.79-10.92,27.83-9.48,31.43-9.23,19.24,1.25,32.1,11.23,42.91,18.49,24.84,16.66,55.66,37.67,84.77,35.15,37.89-3.27,49.37-42.44,77.17-34.87,11.5,3.1,22.4,10.98,44.35,13.14,3.55.36,7.43.11,12-1.08,10.12-2.61,38.14-16.35,48.32-19.46.55-.25,11-4.91,20.54,1.47,6.68,4.46,10.2,12.56,8.98,20.68,0,.97-3.1,16.11-3.35,17.44-1.44,7.37-4.3,21.95,1.33,34.9.75,1.72,9.37,20.9,26.83,22.15,14.69,1.03,26.22-11.23,30.88-20.82,4.68-9.65,3.74-19.38,2.58-31.74-2.08-21.68-6.6-29.3-2.58-32.65,5.07-4.27,15.11,6.15,39.33,11.7,11.95,2.74,22.59,5.21,33.12,1.05,7.29-2.86,12.61-8.15,16.47-13.8,13.58,125.32-50.34,278.72-143.48,351.57Z" fill="url(#linear-gradient)"/><path d="M1584.17,713.19c-3.85,5.65-9.18,10.95-16.47,13.8-10.53,4.16-21.18,1.69-33.12-1.05-24.23-5.54-34.26-15.97-39.33-11.7-4.02,3.35.5,10.98,2.58,32.65,1.16,12.36,2.11,22.09-2.58,31.74-4.66,9.59-16.19,21.84-30.88,20.82-17.46-1.25-26.08-20.43-26.83-22.15-5.63-12.95-2.77-27.53-1.33-34.9.25-1.33,3.35-16.47,3.35-17.44,1.22-8.12-2.3-16.22-8.98-20.68-9.54-6.38-19.99-1.72-20.54-1.47-10.17,3.1-38.2,16.85-48.32,19.46-4.57,1.19-8.45,1.44-12,1.08-21.95-2.16-32.85-10.03-44.35-13.14-27.8-7.57-39.28,31.6-77.17,34.87-29.11,2.52-59.93-18.49-84.77-35.15-10.81-7.26-23.67-17.24-42.91-18.49-3.6-.25-25.64-1.69-31.43,9.23-5.54,10.51,10.09,20.71,9.04,45.18-.25,6.15-.83,16.33-8.26,24.73-6.9,7.82-19.38,13.61-31.38,10.17-12.7-3.63-20.1-16.3-21.95-26.28-2.69-14.47,6.49-22.65.33-34.21-.72-1.39-3.88-7.12-10.06-9.4-7.71-2.86-14.77,1.97-23.76,5.82-13.36,5.77-29.8,9.01-40.28,7.54-4.38-.61-13.55-2.86-24.01-14.22,10.64-81.19,51.95-153.9,146.61-155.76,55.99-1.11,104.61,27.05,139.62,68.63,10.17,12.09,41.63,67.77,49.15,69.08,8.93,1.52,42.19-61.21,52.17-73.32,79.2-95.97,218.99-91.06,264.36,34.57,6.82,18.85,11.25,39.03,13.5,59.96Z" fill="#fff7f0"/><path d="M907.4,692.09c15.14,27.3,30.51,31.31,36.6,32.16,10.48,1.46,26.91-1.78,40.3-7.55,8.96-3.86,16.03-8.66,23.74-5.83,6.18,2.27,9.33,8.01,10.06,9.39,6.14,11.57-3.02,19.74-.34,34.22,1.85,9.97,9.27,22.64,21.97,26.28,11.98,3.44,24.46-2.36,31.37-10.18,7.41-8.38,7.99-18.58,8.26-24.73,1.05-24.47-14.59-34.68-9.03-45.17,5.78-10.92,27.82-9.48,31.42-9.24,19.24,1.26,32.11,11.22,42.91,18.48,24.83,16.67,55.68,37.67,84.79,35.16,37.89-3.27,49.37-42.45,77.16-34.89,11.51,3.13,22.39,10.99,44.37,13.16,3.52.35,7.42.09,11.99-1.08,10.12-2.6,38.14-16.37,48.31-19.46.56-.26,11.02-4.91,20.54,1.46,6.69,4.47,10.2,12.55,8.98,20.68.01.97-3.09,16.1-3.35,17.44-1.45,7.37-4.3,21.94,1.34,34.89.75,1.73,9.35,20.9,26.84,22.14,14.67,1.04,26.21-11.22,30.86-20.8,4.69-9.64,3.76-19.38,2.58-31.75-2.06-21.66-6.59-29.29-2.58-32.66,5.07-4.26,15.12,6.15,39.33,11.71,11.95,2.74,22.6,5.19,33.13,1.03,17.43-6.88,23.76-27.61,25.5-34.22" fill="none" stroke="#401202" stroke-linecap="round" stroke-linejoin="round" stroke-width="16.63"/><path d="M1437.53,552.19c55.69,0,108.42,32.6,133.14,101.03,47.61,131.76-21.3,326.53-130,411.55-19.74,15.44-45.57,26.59-66.63,26.59-24.22,0-42.14-14.73-37.26-54.61,6.78-55.47,83.43-169.08,69.66-215.08-3.15-10.53-7.47-14.72-12.37-14.72-17.52,0-42.48,53.61-48.16,61.96-20.63,30.31-54.03,84.75-96.07,84.75-5.93,0-12.03-1.08-18.29-3.47-45.59-17.37-86.64-141.97-109.43-147.87-1.81-.47-3.46-.69-4.98-.69-21.99,0-14.08,46.68-11.06,59.23,13.63,56.71,80.62,158.65,63.48,210.85-5.1,15.53-19.39,20.83-35.59,20.83-18.6,0-39.71-6.98-52.33-13.45-72.72-37.33-137.99-158.09-156.01-235.78-25.74-111.02-7.86-286.11,139.73-289.02,1.06-.02,2.12-.03,3.17-.03,54.67,0,102.1,27.87,136.45,68.67,10.17,12.08,41.64,67.78,49.15,69.07.11.02.22.03.33.03,9.39,0,41.97-61.39,51.84-73.35,36.05-43.69,84.67-66.47,131.22-66.47M1437.53,522.7c-27.8,0-56.39,6.89-82.65,19.93-27.03,13.42-51.02,32.68-71.31,57.26-4.5,5.45-9.8,14.03-18.76,28.71-2.57,4.2-6.18,10.12-9.95,16.12-2.52-3.89-4.89-7.61-6.8-10.6-9.55-14.98-15.66-24.45-20.5-30.21-42.98-51.05-99.45-79.17-159.01-79.17-1.25,0-2.52.01-3.76.04-27.91.55-53.4,6.5-75.76,17.7-20.94,10.49-39.16,25.56-54.14,44.8-13.36,17.16-24.18,37.69-32.15,61.02-7.06,20.67-11.91,43.58-14.41,68.07-4.41,43.21-1.36,90.65,8.59,133.57,10.05,43.35,32.92,96.41,61.16,141.91,23.65,38.1,61.95,88.72,110.1,113.44,15.73,8.08,41.28,16.71,65.8,16.71,13.57,0,25.56-2.68,35.64-7.95,13.5-7.07,23.17-18.53,27.97-33.16,14.71-44.78-11.39-103.45-36.63-160.19-1.53-3.44-3.05-6.86-4.55-10.24,4.19,6.96,8.53,13.77,12.98,20.2,17.57,25.37,33.99,40.32,51.68,47.06,9.4,3.58,19.09,5.4,28.79,5.4,25.19,0,49.96-12.17,73.59-36.17,11.98-12.17,22.33-25.81,31.26-38.56-3.58,8.14-7.31,16.36-10.99,24.5-16.86,37.23-32.79,72.4-36.2,100.25-3.46,28.34,1.9,50.75,15.94,66.62,12.2,13.78,29.69,21.07,50.59,21.07,26.8,0,58.5-12.28,84.8-32.85,57.37-44.87,106.01-118.6,133.47-202.28,13.64-41.58,21.34-83.11,22.89-123.43,1.67-43.56-3.98-83.62-16.79-119.09-6.97-19.29-16.17-36.81-27.35-52.06-10.91-14.89-23.74-27.69-38.13-38.04-27.66-19.89-60.65-30.4-95.4-30.4h0Z" fill="#401202"/></g></svg>