<?xml version="1.0" encoding="UTF-8"?><svg id="Layer_1" xmlns="http://www.w3.org/2000/svg" xmlns:xlink="http://www.w3.org/1999/xlink" viewBox="0 0 1056.92 868.72"><defs><linearGradient id="linear-gradient" x1="528.46" y1="244.33" x2="528.46" y2="825.97" gradientUnits="userSpaceOnUse"><stop offset=".21" stop-color="#fe6391"/><stop offset=".85" stop-color="#e34980"/><stop offset=".87" stop-color="#e24980"/></linearGradient></defs><path d="M803.55,785.73c-61.56,48.14-163.82,67.46-150.6-40.62,9.8-80.4,120.9-245.06,100.97-311.76-20.93-69.91-77.23,53-87.76,68.47-34.11,50.15-92.34,145.82-165.75,117.81-66.1-25.15-125.61-205.77-158.63-214.32-40.7-10.57-27.93,65.41-23.26,84.86,19.77,82.17,116.85,229.95,92.01,305.62-15.87,48.38-93.22,28.25-127.45,10.69-105.39-54.12-200.02-229.15-226.14-341.78-13.38-57.7-18.6-127.37-9.97-193.15,15.15,16.47,28.45,19.73,34.8,20.61,15.19,2.13,39.02-2.57,58.38-10.93,13.02-5.59,23.26-12.58,34.43-8.44,8.96,3.29,13.54,11.61,14.59,13.62,8.92,16.76-4.38,28.61-.48,49.58,2.69,14.46,13.42,32.83,31.82,38.09,17.4,4.98,35.48-3.42,45.48-14.75,10.77-12.17,11.61-26.92,11.97-35.84,1.53-35.48-21.13-50.27-13.1-65.49,8.4-15.83,40.34-13.74,45.56-13.38,27.89,1.81,46.53,16.27,62.2,26.8,36,24.15,80.68,54.61,122.87,50.95,54.93-4.74,71.56-61.52,111.86-50.55,16.67,4.5,32.47,15.91,64.29,19.05,5.14.52,10.77.16,17.4-1.57,14.67-3.78,55.29-23.71,70.04-28.21.8-.36,15.95-7.11,29.77,2.13,9.68,6.47,14.79,18.2,13.02,29.97,0,1.41-4.5,23.35-4.86,25.27-2.09,10.69-6.23,31.82,1.93,50.59,1.08,2.49,13.58,30.3,38.9,32.1,21.3,1.49,38.01-16.27,44.76-30.18,6.79-13.98,5.42-28.09,3.74-46.01-3.01-31.42-9.56-42.47-3.74-47.33,7.35-6.19,21.9,8.92,57.02,16.96,17.32,3.98,32.75,7.55,48.02,1.53,10.57-4.14,18.28-11.81,23.87-20.01,19.69,181.66-72.97,404.02-207.98,509.61Z" fill="url(#linear-gradient)"/><path d="M1011.52,276.12c-5.58,8.2-13.3,15.87-23.87,20.01-15.27,6.03-30.7,2.45-48.02-1.53-35.12-8.04-49.66-23.14-57.02-16.96-5.83,4.86.72,15.91,3.74,47.33,1.69,17.92,3.05,32.02-3.74,46.01-6.75,13.9-23.47,31.66-44.76,30.18-25.31-1.81-37.81-29.61-38.9-32.1-8.16-18.76-4.02-39.9-1.93-50.59.36-1.93,4.86-23.87,4.86-25.27,1.77-11.77-3.34-23.51-13.02-29.97-13.82-9.24-28.97-2.49-29.77-2.13-14.75,4.5-55.37,24.43-70.04,28.21-6.63,1.73-12.26,2.09-17.4,1.57-31.82-3.13-47.61-14.55-64.29-19.05-40.3-10.97-56.94,45.81-111.86,50.55-42.19,3.66-86.87-26.8-122.87-50.95-15.67-10.53-34.31-24.99-62.2-26.8-5.22-.36-37.17-2.45-45.56,13.38-8.04,15.23,14.63,30.02,13.1,65.49-.36,8.92-1.21,23.67-11.97,35.84-10,11.33-28.09,19.73-45.48,14.75-18.4-5.26-29.13-23.63-31.82-38.09-3.9-20.97,9.4-32.83.48-49.58-1.04-2.01-5.63-10.33-14.59-13.62-11.17-4.14-21.42,2.85-34.43,8.44-19.37,8.36-43.19,13.06-58.38,10.93-6.35-.88-19.65-4.14-34.8-20.61,15.43-117.69,75.3-223.08,212.52-225.78,81.17-1.61,151.64,39.22,202.39,99.49,14.75,17.52,60.35,98.24,71.24,100.13,12.94,2.21,61.16-88.72,75.62-106.28C723.55,0,926.18,7.11,991.95,189.21c9.88,27.32,16.31,56.57,19.57,86.91Z" fill="#fff7f0"/><path d="M30.51,245.54c21.95,39.58,44.23,45.39,53.05,46.62,15.19,2.12,39.01-2.58,58.41-10.94,12.99-5.59,23.23-12.56,34.42-8.45,8.96,3.29,13.52,11.61,14.59,13.62,8.9,16.77-4.38,28.62-.49,49.6,2.68,14.45,13.43,32.81,31.85,38.1,17.37,4.98,35.45-3.41,45.48-14.76,10.74-12.15,11.59-26.94,11.97-35.84,1.52-35.47-21.15-50.28-13.1-65.48,8.38-15.82,40.32-13.73,45.54-13.39,27.89,1.82,46.54,16.27,62.21,26.79,36,24.17,80.71,54.61,122.9,50.97,54.92-4.73,71.56-61.53,111.84-50.57,16.68,4.54,32.46,15.93,64.31,19.08,5.11.5,10.76.13,17.38-1.57,14.67-3.77,55.29-23.73,70.02-28.2.81-.38,15.97-7.12,29.78,2.11,9.69,6.48,14.78,18.2,13.01,29.98.02,1.41-4.48,23.34-4.86,25.29-2.1,10.69-6.24,31.8,1.95,50.57,1.09,2.51,13.56,30.3,38.9,32.09,21.27,1.51,37.99-16.27,44.74-30.15,6.79-13.98,5.45-28.09,3.74-46.02-2.99-31.4-9.55-42.45-3.74-47.34,7.35-6.18,21.91,8.91,57.02,16.98,17.32,3.98,32.76,7.53,48.02,1.5,25.26-9.98,34.44-40.02,36.96-49.6" fill="none" stroke="#401202" stroke-linecap="round" stroke-linejoin="round" stroke-width="24.11"/><path d="M798.97,42.75c80.73,0,157.16,47.26,193,146.45,69.01,190.99-30.87,473.32-188.44,596.55-28.62,22.38-66.06,38.54-96.58,38.54-35.11,0-61.08-21.36-54.01-79.17,9.83-80.4,120.94-245.08,100.98-311.77-4.57-15.27-10.83-21.34-17.93-21.34-25.4,0-61.58,77.71-69.82,89.82-29.9,43.94-78.32,122.84-139.25,122.84-8.59,0-17.43-1.57-26.51-5.03-66.09-25.18-125.59-205.78-158.63-214.35-2.62-.68-5.02-1-7.21-1-31.87,0-20.41,67.66-16.04,85.86,19.76,82.2,116.87,229.97,92.02,305.63-7.39,22.51-28.11,30.19-51.59,30.19-26.96,0-57.56-10.11-75.85-19.5-105.41-54.11-200.02-229.15-226.14-341.77C19.64,303.77,45.55,49.97,259.5,45.75c1.54-.03,3.07-.05,4.6-.05,79.25,0,148,40.4,197.79,99.54,14.74,17.5,60.36,98.24,71.25,100.12.16.03.32.04.48.04,13.61,0,60.83-88.98,75.14-106.32,52.26-63.33,122.74-96.35,190.21-96.35M798.97,0c-40.3,0-81.73,9.99-119.81,28.89-39.18,19.45-73.96,47.37-103.37,83-6.53,7.91-14.2,20.34-27.2,41.62-4.77,7.8-9.63,15.77-14.41,23.39-3.65-5.65-7.1-11.05-9.87-15.39-13.85-21.71-22.69-35.44-29.72-43.79C432.29,43.72,350.43,2.96,264.1,2.96c-1.81,0-3.64.02-5.45.05-40.46.8-77.41,9.43-109.82,25.66-30.36,15.2-56.76,37.05-78.48,64.94-19.37,24.87-35.05,54.63-46.6,88.45-10.24,29.97-17.27,63.17-20.89,98.67-6.39,62.63-1.97,131.4,12.46,193.62,14.57,62.84,47.71,139.74,88.65,205.71,34.28,55.23,89.8,128.6,159.6,164.43,22.81,11.71,59.84,24.22,95.38,24.22,19.67,0,37.05-3.88,51.66-11.53,19.56-10.24,33.58-26.86,40.55-48.07,10.23-31.15,7.88-68.66-7.41-118.04-11.63-37.59-28.95-76.51-45.7-114.16-2.22-4.99-4.43-9.95-6.59-14.84,6.08,10.09,12.36,19.96,18.82,29.29,25.47,36.77,49.28,58.45,74.91,68.22,13.63,5.19,27.67,7.83,41.73,7.83,20.63,0,41.21-5.63,61.16-16.75,15.46-8.61,30.35-20.28,45.52-35.68,17.37-17.63,32.36-37.41,45.32-55.89-5.19,11.79-10.59,23.72-15.93,35.51-24.45,53.97-47.54,104.95-52.47,145.32-5.02,41.08,2.75,73.57,23.11,96.56,17.68,19.98,43.04,30.53,73.33,30.53,20.4,0,42.32-4.72,65.16-14.04,20.3-8.28,40.27-19.89,57.76-33.57,83.16-65.04,153.67-171.91,193.47-293.21,19.77-60.27,30.94-120.47,33.18-178.91,2.42-63.14-5.77-121.21-24.34-172.62-10.1-27.96-23.44-53.35-39.64-75.47-15.82-21.59-34.42-40.14-55.27-55.13C897.15,15.24,849.34,0,798.97,0h0Z" fill="#401202"/></svg>