<?xml version="1.0" encoding="UTF-8"?><svg id="Layer_1" xmlns="http://www.w3.org/2000/svg" xmlns:xlink="http://www.w3.org/1999/xlink" viewBox="0 0 2395.5 2195.29"><defs><linearGradient id="linear-gradient" x1="1623.66" y1="753.76" x2="1623.66" y2="927.4" gradientUnits="userSpaceOnUse"><stop offset=".04" stop-color="#fddfac"/><stop offset=".74" stop-color="#f8bc5b"/></linearGradient><linearGradient id="linear-gradient-2" x1="1510.73" y1="753.85" x2="1510.73" xlink:href="#linear-gradient"/><linearGradient id="linear-gradient-3" x1="1402.99" y1="753.68" x2="1402.99" xlink:href="#linear-gradient"/><linearGradient id="linear-gradient-4" x1="1267.36" y1="752.81" x2="1267.36" xlink:href="#linear-gradient"/><linearGradient id="linear-gradient-5" x1="892.19" y1="756.16" x2="892.19" y2="927.15" xlink:href="#linear-gradient"/><linearGradient id="linear-gradient-6" x1="1079.98" y1="778.57" x2="1079.98" y2="923.58" gradientUnits="userSpaceOnUse"><stop offset=".21" stop-color="#fe6391"/><stop offset=".85" stop-color="#e34980"/><stop offset=".87" stop-color="#e24980"/></linearGradient></defs><g id="Logo"><path d="M1599.67,927.4c-13.29,0-31.29-3.05-34.23-29.44-2.51-22.51-2.49-45.63-2.47-67.98,0-6.57.01-13.37-.05-20.01-.02-2.62-.2-5.55-.39-8.66-.91-14.87-2.15-35.24,14.6-43.28,5.91-2.84,13.12-4.28,21.43-4.28,13.55,0,29.48,3.99,41.58,10.41,11.96,6.34,23.73,17.58,30.11,28.72,5.76,6.6,10.17,20.38,11.72,26.85,6.77,28.41,2.94,54.92-10.78,74.67-12.41,17.86-32.04,28.91-56.77,31.95-5.89.72-10.58,1.06-14.76,1.06h0ZM1610.89,867.9c.19.04.49.09.96.09,3.9,0,10.62-3.06,12.4-4.62,8.1-7.09,10.47-22.37,5.52-35.54-1.84-4.89-7.24-15.86-19-17.17,0,.54,0,1.08,0,1.61-.03,4.93-.06,9.59.17,15.17.29,7.08.14,14.25,0,21.19-.12,6.34-.25,12.89-.05,19.27Z" fill="url(#linear-gradient)"/><path d="M1598.58,757.59c13.98,0,29.24,4.36,39.78,9.96,11.11,5.89,22.6,16.61,28.77,27.58,4.94,5.4,9.4,18.27,11.13,25.5,12.01,50.41-10.59,95.33-64.29,101.93-4.99.61-9.79,1.03-14.29,1.03-16.01,0-28.12-5.3-30.43-26.04-3.23-28.92-2.23-58.49-2.49-87.6-.12-15.46-5.46-40.05,12.04-48.45,5.71-2.74,12.58-3.9,19.78-3.9M1611.85,871.81c5.07,0,12.59-3.53,14.92-5.57,18.22-15.95,8.87-59.54-18.34-59.54-.49,0-.98.01-1.47.04,0,7.4-.16,13.19.15,20.84.55,13.67-.51,27.47-.02,41.15.42,2.24,2.3,3.07,4.76,3.07M1598.58,749.94c-8.89,0-16.66,1.57-23.09,4.65-8.63,4.14-14.06,11.64-16.16,22.28-1.61,8.15-1.07,16.93-.6,24.67.19,3.05.36,5.94.38,8.45.06,6.64.05,13.42.05,19.99-.02,22.45-.04,45.67,2.49,68.4,1.32,11.87,5.74,20.66,13.14,26.11,6.15,4.53,14.29,6.73,24.89,6.73,4.34,0,9.18-.34,15.22-1.09,25.84-3.17,46.39-14.78,59.45-33.56,14.35-20.65,18.38-48.26,11.36-77.74-.19-.8-4.64-19.11-12.31-28.19-6.76-11.62-19.01-23.28-31.45-29.87-12.61-6.69-29.23-10.85-43.37-10.85h0ZM1614.63,863.69c-.06-4.99.04-10.05.14-14.99.14-7,.28-14.23-.01-21.43-.17-4.25-.19-7.98-.18-11.72,6.83,2.86,10.29,10.08,11.62,13.61,4.42,11.76,2.5,25.23-4.46,31.32-1.04.85-4.3,2.42-7.1,3.2h0Z" fill="#401202"/><path d="M1513.89,927.4c-13.03,0-24.51-1.92-30.73-5.14-18.43-9.53-19.34-37.18-20.01-57.37-.12-3.5-.22-6.81-.42-9.67-.29-4.19-.62-8.45-.95-12.75-1.36-17.48-2.77-35.56-1.49-52.79.44-6.01,2.17-20.6,8.72-26.4,8.78-7.81,28.85-9.46,44.14-9.46,8.11,0,14.39.46,17.42.73,15.34,1.39,25.12,8.64,26.17,19.39.91,9.21-1.18,16.56-6.05,21.26-.25.25-.57.54-.94.83-2.81,2.36-6.75,4.11-11.99,5.29-.04.01-.09.02-.13.03-4.73,1.04-10.45,1.57-16.99,1.57-4.58,0-8.69-.26-11.59-.51v6.75c3.32-.29,8.19-.61,13.26-.61,4.37,0,8.17.25,11.29.73.53.07,1.07.17,1.62.27.57.11,1.07.22,1.55.34,7.67,1.92,16.81,7.43,16.77,22.84-.02,6.33-2.69,15.24-8.5,19.85-4.61,3.65-14.97,6.58-20.48,6.58h-11.39v11.87c4.4-.3,11.2-.67,17.65-.67,4.95,0,8.97.22,11.97.66.24.02.47.05.71.1l.11.02c.22.04.44.07.65.12.81.13,1.61.33,2.46.61,7.07,2.29,12.24,8.88,14.17,18.08,1.91,9.09.49,21.25-7.01,27.95-9.84,8.79-33.1,9.47-40,9.47Z" fill="url(#linear-gradient-2)"/><path d="M1513.15,757.67c6.69,0,12.77.33,17.07.72,9.63.87,21.64,4.97,22.71,15.95.63,6.35-.09,13.5-4.9,18.14-.21.21-.44.41-.67.6-2.6,2.19-6.29,3.61-10.44,4.55-.03,0-.06.02-.08.02-5.14,1.14-10.97,1.49-16.2,1.49-8.48,0-15.42-.92-15.42-.92v15.23s8.32-1.01,17.09-1.01c3.7,0,7.48.18,10.75.69.47.06.96.15,1.45.24.46.09.9.18,1.33.29,9.87,2.46,13.9,9.18,13.87,19.11-.02,5.69-2.46,13.22-7.06,16.87-3.81,3.01-13.36,5.75-18.1,5.75h-15.21v19.82h.03c.66-.05,11.45-.97,21.45-.97,4.3,0,8.45.17,11.59.65.12,0,.23.02.35.05.26.05.52.08.77.14.69.11,1.35.28,2,.49,14.19,4.61,16.08,30.35,5.8,39.53-6.51,5.82-22.39,8.5-37.45,8.5-11.77,0-23.04-1.64-28.97-4.71-19.47-10.07-17.09-45.12-18.37-63.9-1.44-21.06-4.01-43.83-2.45-65,.49-6.66,2.36-19.31,7.44-23.81,7.58-6.75,26.21-8.49,41.6-8.49M1513.15,750.02c-23.21,0-38.92,3.51-46.69,10.43-7.3,6.47-9.39,20.93-9.98,28.97-1.29,17.52.13,35.74,1.5,53.36.34,4.4.66,8.55.95,12.72.19,2.79.3,6.06.41,9.53.7,21.13,1.65,50.08,22.07,60.64,9.7,5.02,25.95,5.56,32.49,5.56,9.28,0,31.99-1.02,42.55-10.45,8.64-7.71,10.35-21.42,8.21-31.59-2.22-10.57-8.33-18.2-16.74-20.93-.99-.32-1.95-.56-2.91-.73-.32-.07-.59-.11-.79-.14h0c-.33-.07-.66-.12-.99-.14-3.2-.46-7.26-.68-12.39-.68-4.79,0-9.76.2-13.83.43v-3.98h7.56c6.24,0,17.58-3.23,22.85-7.41,6.85-5.44,9.94-15.39,9.96-22.85.04-13.95-6.94-23.38-19.66-26.56-.61-.15-1.19-.27-1.68-.37-.03,0-.06-.01-.09-.02-.2-.04-.4-.08-.62-.11,1.08-.18,2.11-.37,3.11-.59.06-.01.12-.02.18-.04,5.81-1.31,10.26-3.3,13.61-6.1.43-.35.81-.69,1.17-1.05,5.71-5.54,8.18-13.96,7.15-24.35-1.24-12.71-12.32-21.25-29.64-22.82-3.09-.28-9.51-.75-17.76-.75h0Z" fill="#401202"/><path d="M1375.68,927.4c-1.59,0-3.31-.08-5.42-.25-23.43-1.87-23.41-27.93-23.4-43.51,0-2.94,0-5.71-.13-7.89-.95-14.88-1.3-29.11-1.66-44.17l-.14-5.66c-.02-.96-.05-2.1-.09-3.39-.65-22.85-.58-44.99,4.22-52.21.19-.28.39-.56.6-.84.03-.04.06-.08.09-.12.44-.55.93-1.1,1.46-1.64.17-.18.35-.35.53-.53l.21-.2c.88-.85,1.84-1.69,2.68-2.34l.77-.63c5.47-4.62,12.82-7.59,22.44-9.06,5.61-.86,11.03-1.3,16.11-1.3,16.97,0,31.4,4.87,42.88,14.48,11.04,9.25,17.33,22.04,17.71,36,.38,14.1-5.58,27.95-16.34,38-.14.13-.29.25-.45.36l-4.4,3.01c2.03,2.62,4.45,5.83,6.91,9.29.63.88,1.27,1.79,1.9,2.7,2.02,2.92,3.79,5.61,5.4,8.21.42.66.85,1.38,1.28,2.09,1.26,2.09,2.48,4.22,3.6,6.32l.35.66c.31.6.62,1.2.92,1.8.46.9.95,1.9,1.42,2.95.25.52.49,1.04.72,1.55.2.44.4.9.59,1.35l.15.35c.25.58.49,1.16.71,1.75.28.69.53,1.36.78,2.03.3.81.57,1.62.83,2.41.2.61.37,1.18.55,1.78l.09.3c.17.63.35,1.24.49,1.85.19.74.34,1.41.46,2.03.09.4.16.79.23,1.19.05.24.09.48.12.72.03.14.05.28.07.43.02.09.03.17.04.26.07.42.12.82.16,1.21v.04c.04.23.06.45.08.68.07.55.1,1.07.13,1.61,0,.06,0,.12,0,.18.04.6.06,1.23.06,1.94,0,1.24-.07,2.48-.21,3.67-.04.36-.09.69-.15,1.03l-.09.46c-.08.44-.19.9-.31,1.33-.27,1.01-.68,2.11-1.2,3.2-.17.37-.35.71-.54,1.06-.08.15-.16.29-.25.44-.02.04-.04.08-.07.13-.22.38-.45.74-.68,1.1-.25.38-.51.75-.82,1.14-.22.29-.45.58-.7.88l-.34.4c-.27.32-.5.57-.74.81-.32.34-.66.68-1.02,1-.25.24-.62.55-.96.84-.23.19-.47.39-.72.58-.28.23-.55.43-.82.61-.29.21-.55.39-.82.57-.3.2-.58.37-.86.54-.01,0-.1.06-.11.07-.54.32-1.01.58-1.49.81-.37.19-.79.38-1.23.57-.41.18-.78.33-1.15.47-.05.02-.38.13-.38.13-.43.15-.85.29-1.28.41-.31.1-.64.19-.96.26-.61.15-1.21.27-1.77.36-1.45.23-2.91.34-4.33.34h0c-22.61,0-33.21-28.45-40.24-47.28-.06-.17-.12-.34-.19-.5,0,1.86,0,3.73.02,5.57.04,2.29.19,4.69.35,7.24.49,7.66,1.05,16.35-1.8,24.11-4.36,11.85-16.05,11.85-19.89,11.85ZM1391.69,820.48c.57.06,1.14.09,1.71.09,6.97,0,12.17-4.2,13.71-8.34,1.24-3.35.23-6.57-2.94-9.3-1.02-.88-4.23-1.83-8.86-1.83-1.44,0-2.89.09-4.3.27-.06,4.99.13,13.92.68,19.12Z" fill="url(#linear-gradient-3)"/><path d="M1393.95,757.51c14.67,0,28.64,3.73,40.42,13.59,21.41,17.94,21.78,49.07,1.21,68.27l-7.76,5.31c2.77,3.52,6.01,7.73,9.32,12.37.63.87,1.25,1.76,1.87,2.65,1.79,2.59,3.58,5.28,5.3,8.05.43.67.84,1.36,1.25,2.05,1.22,2.02,2.4,4.09,3.5,6.15.41.8.83,1.58,1.22,2.37.49.95.95,1.91,1.38,2.86.24.51.47,1.01.7,1.52.24.54.47,1.09.7,1.62.23.54.46,1.07.66,1.62.28.67.52,1.33.77,1.99.28.75.54,1.52.78,2.26.18.57.35,1.12.52,1.68.18.66.37,1.3.52,1.94.17.66.32,1.3.44,1.94.09.38.15.75.21,1.13.05.18.08.37.09.57.03.14.06.29.08.44t0,.03s.03.11.03.15c.08.43.12.84.17,1.24.03.18.05.37.06.55.06.5.09.98.12,1.47v.08c.05.61.06,1.21.06,1.79,0,1.09-.06,2.17-.18,3.23-.03.26-.06.51-.11.75-.03.15-.06.31-.09.47-.06.32-.14.66-.23.98-.24.9-.58,1.78-.98,2.62-.14.29-.28.57-.43.84-.09.17-.18.34-.29.51v.02c-.18.32-.38.63-.58.93-.2.31-.41.6-.64.89-.17.23-.35.46-.55.69-.14.17-.28.32-.41.49-.17.2-.34.38-.52.57-.26.28-.54.55-.83.81-.28.26-.58.52-.87.77-.2.17-.4.34-.61.49-.2.17-.4.32-.61.46-.26.18-.52.37-.8.55-.26.17-.54.34-.81.51-.38.23-.77.44-1.18.64-.37.18-.73.35-1.12.52-.32.14-.64.28-.96.4-.09.03-.18.06-.28.09-.38.14-.77.26-1.15.37-.23.08-.46.14-.69.18-.49.12-.99.23-1.5.31-1.29.2-2.54.3-3.75.3-23.33,0-32.83-36.08-39.93-53.31-.96-2.34-2.45-5.94-4.25-7.67.11,7.53-.15,15.11-.05,22.65.15,9.5,2.22,20.61-1.21,29.98-2.81,7.65-9.28,9.34-16.3,9.34-1.69,0-3.41-.1-5.11-.23-23.81-1.9-19.11-33.78-20.02-47.83-1.07-16.7-1.38-32.98-1.79-49.68-.26-10.99-1.76-45.48,3.49-53.38.15-.23.32-.46.49-.69.37-.46.78-.92,1.22-1.36.21-.23.46-.46.69-.69.87-.84,1.74-1.58,2.36-2.05.28-.23.57-.46.84-.69,5.69-4.81,13.18-7.09,20.57-8.22,5.22-.8,10.42-1.25,15.53-1.25M1393.4,824.39c14.24,0,24.51-14.67,13.27-24.37-2.14-1.85-6.57-2.76-11.36-2.76-2.67,0-5.45.28-8.02.85-.29,3.64-.11,20.06.99,25.65,1.74.43,3.45.63,5.11.63M1393.95,749.86c-5.28,0-10.89.45-16.7,1.34-10.34,1.58-18.3,4.83-24.34,9.93-.08.06-.19.16-.3.25-.13.11-.27.22-.4.32-.59.46-1.67,1.34-2.88,2.51-.03.03-.07.06-.1.1l-.17.17c-.2.2-.4.4-.59.6-.62.62-1.19,1.26-1.71,1.91-.07.08-.13.17-.2.26-.24.33-.47.65-.69.97-5.11,7.69-5.65,26.54-4.86,54.45.04,1.28.07,2.41.09,3.36l.14,5.7c.36,15.09.71,29.34,1.67,44.28.13,2.06.13,4.77.13,7.64,0,8.24-.02,18.5,2.83,27.42,4.87,15.25,15.79,19.25,24.09,19.91,2.21.18,4.02.26,5.72.26,12.08,0,19.98-4.83,23.48-14.35,2.02-5.51,2.49-11.27,2.43-16.82,7.41,15.57,18.18,30.18,35.82,30.18,1.62,0,3.28-.13,4.94-.39.63-.09,1.3-.23,2.02-.4.4-.09.81-.2,1.21-.32.47-.14.95-.29,1.42-.46l.2-.07c.1-.03.2-.07.3-.11.41-.16.83-.33,1.24-.51.02-.01.06-.03.08-.04.53-.23.98-.44,1.41-.66.57-.27,1.12-.58,1.74-.95.02-.01.04-.02.05-.03.33-.2.66-.41.98-.61.03-.02.06-.04.09-.06.3-.2.58-.39.86-.59.34-.23.68-.48,1.02-.75.34-.26.62-.5.84-.68.32-.27.71-.6,1.11-.97.37-.34.75-.7,1.14-1.11.3-.31.59-.62.87-.95.03-.03.05-.06.08-.1l.1-.11c.08-.1.16-.19.24-.29.28-.32.54-.65.79-.99.36-.47.68-.91.97-1.36.23-.35.52-.8.81-1.31.03-.05.06-.1.09-.15.11-.18.2-.35.27-.47.21-.39.42-.78.64-1.25.61-1.29,1.09-2.58,1.44-3.85.14-.5.27-1.04.37-1.6,0-.02,0-.04.01-.06.02-.12.04-.23.06-.33,0-.03.01-.07.02-.1.09-.49.14-.91.19-1.27.16-1.36.24-2.74.24-4.12,0-.75-.02-1.45-.07-2.12,0-.08,0-.15-.01-.23-.03-.49-.07-1.08-.15-1.76-.02-.21-.04-.48-.09-.8-.04-.37-.09-.81-.18-1.31,0,0,0,0,0,0-.02-.17-.05-.34-.08-.51-.01-.07-.02-.14-.03-.2-.04-.29-.09-.57-.15-.85-.06-.39-.14-.81-.25-1.27-.13-.66-.29-1.36-.5-2.19-.16-.68-.34-1.31-.51-1.92l-.07-.24s-.02-.08-.04-.12c-.19-.63-.37-1.24-.58-1.86-.31-.95-.6-1.78-.88-2.54-.26-.69-.51-1.37-.81-2.11-.26-.7-.52-1.32-.76-1.88l-.15-.36c-.2-.48-.41-.96-.63-1.44-.24-.52-.48-1.05-.73-1.58-.5-1.11-.99-2.12-1.49-3.09-.31-.62-.63-1.23-.95-1.84l-.31-.59s-.03-.05-.04-.07c-1.16-2.17-2.4-4.36-3.71-6.52-.41-.69-.85-1.41-1.32-2.15-1.64-2.64-3.43-5.37-5.49-8.34-.6-.86-1.25-1.8-1.95-2.76-1.55-2.18-3.09-4.26-4.52-6.16l1.07-.73c.32-.22.62-.46.9-.72,11.56-10.8,17.96-25.71,17.55-40.9-.41-15.08-7.18-28.87-19.07-38.83-12.19-10.2-27.44-15.38-45.33-15.38h0ZM1394.83,804.92c.16,0,.32,0,.49,0,3.84,0,5.94.7,6.46.99,2.41,2.12,2.21,3.78,1.76,4.98-.93,2.5-4.06,5.13-8.32,5.73-.23-3.64-.35-8.08-.38-11.69h0Z" fill="#401202"/><path d="M1313.02,927.4c-20.78,0-27.38-18.89-30.54-33.1-.33-1.5-.7-4.16-1.11-7.24-.4-2.92-1.03-7.57-1.5-9.5-.28-.07-.69-.16-1.29-.22-2.42-.28-7.56-.46-12.81-.46-4.91,0-9.03.16-11,.42l-.27.03c-.58,2.13-1.14,7.1-1.43,9.65-.27,2.41-.49,4.31-.74,5.5-5.92,28.28-20.12,34.21-30.99,34.21-3,0-6.22-.44-9.55-1.32-10.74-2.82-16.6-8.85-19-19.53-4.61-20.6,8-59.92,14.78-81.04l.31-.96c6.96-21.68,21.45-66.8,53.6-70.69,1.92-.23,3.83-.35,5.67-.35,31.41,0,44.56,34.04,52.42,54.38,8.38,21.74,16.03,46.86,19.96,65.56l.06.3c3.67,17.43,9.81,46.59-16.62,53.07-3.52.86-6.86,1.29-9.94,1.29h0ZM1257.58,829.44c1,.38,3.67.98,8.87.98,4.73,0,8.71-.5,10.94-.98-.23-7.13-6.92-25.08-10.44-26.96-.1-.02-.15-.03-.15-.03h0c-.46.21-1.46,1.85-2,2.74l-.42.69c-3.08,5.01-7.48,19.59-6.79,23.56Z" fill="url(#linear-gradient-4)"/><path d="M1267.13,756.63c27.8,0,39.92,28.81,48.85,51.93,7.51,19.48,15.5,44.58,19.79,64.97,3.66,17.37,9.24,43.23-13.73,48.87-3.3.81-6.3,1.18-9.03,1.18-16.28,0-23.1-13.43-26.81-30.11-.8-3.57-2.02-16.36-3.12-18.27-.66-1.15-2.83-1.52-4.1-1.65-2.69-.31-8.04-.48-13.23-.48-4.64,0-9.16.14-11.51.45-.95.12-1.7.12-2.51.78-1.74,1.41-2.48,14.14-3.17,17.4-3.44,16.43-10.92,31.18-27.25,31.18-2.62,0-5.48-.38-8.58-1.2-9.2-2.42-14.14-7.33-16.24-16.67-4.45-19.9,8.52-59.81,15-80,7.62-23.74,21.69-64.58,50.41-68.06,1.8-.22,3.53-.32,5.22-.32M1266.45,834.24c5.96,0,12.3-.79,14.48-1.94,1.79-6.58-6.78-31.66-12.82-33.47-.47-.14-.9-.2-1.31-.2-2.74,0-4.22,2.89-5.67,5.24-2.97,4.82-9.26,22.91-6.84,27.75.94,1.88,6.38,2.63,12.17,2.63M1267.13,748.98c-2,0-4.06.13-6.14.38-14.97,1.81-28.02,11.95-38.78,30.13-7.92,13.38-13.33,28.67-17.99,43.19l-.31.97c-6.89,21.47-19.71,61.43-14.87,83.04,2.72,12.09,9.63,19.21,21.76,22.4,3.65.96,7.19,1.45,10.52,1.45,12.29,0,28.29-6.46,34.74-37.26.29-1.35.51-3.33.8-5.84.18-1.63.5-4.37.83-6.53,1.87-.11,4.55-.18,8.07-.18,4.19,0,8.27.12,10.86.3.34,2.11.71,4.81.95,6.57.43,3.16.8,5.89,1.17,7.56,2.39,10.77,5.6,18.5,10.1,24.32,6.03,7.81,14.17,11.77,24.18,11.77,3.39,0,7.04-.47,10.85-1.4,9.21-2.26,20.61-8.68,22.62-26.44,1.19-10.5-1.22-21.94-3.16-31.13l-.06-.3c-3.97-18.89-11.69-44.24-20.14-66.14-8.21-21.26-21.96-56.83-55.99-56.83h0ZM1261.54,826.35c.69-4.76,3.41-13.24,5.48-17.34,1.06,1.96,2.34,4.76,3.62,8.43,1.25,3.58,2,6.57,2.42,8.8-1.83.2-4.1.35-6.61.35-2.09,0-3.71-.11-4.91-.24h0Z" fill="#401202"/><path d="M937.84,927.4c-20.78,0-27.38-18.89-30.54-33.1-.34-1.5-.7-4.16-1.11-7.24-.4-2.92-1.03-7.57-1.5-9.5-.28-.07-.69-.16-1.29-.22-2.42-.28-7.56-.46-12.81-.46-4.91,0-9.03.16-11,.42l-.27.03c-.58,2.13-1.14,7.09-1.43,9.65-.27,2.41-.49,4.31-.74,5.5-5.92,28.28-20.12,34.21-30.99,34.21-3,0-6.22-.44-9.55-1.32-10.74-2.82-16.6-8.85-19-19.53-4.61-20.6,8-59.92,14.78-81.04l.31-.96c6.96-21.68,21.45-66.8,53.6-70.69,1.92-.23,3.83-.35,5.67-.35,31.41,0,44.56,34.04,52.42,54.38,8.38,21.73,16.03,46.85,19.96,65.56l.06.3c3.67,17.43,9.81,46.59-16.62,53.07-3.52.86-6.86,1.29-9.94,1.29h0ZM882.41,829.44c1,.38,3.67.98,8.87.98,4.73,0,8.71-.5,10.94-.98-.23-7.13-6.92-25.08-10.44-26.96-.1-.02-.15-.03-.15-.03h0c-.46.21-1.46,1.85-2,2.73l-.42.69c-3.08,5.01-7.48,19.59-6.79,23.56Z" fill="url(#linear-gradient-5)"/><path d="M891.96,756.63c27.8,0,39.92,28.81,48.85,51.93,7.51,19.48,15.5,44.58,19.79,64.97,3.66,17.37,9.24,43.23-13.73,48.87-3.3.81-6.3,1.18-9.03,1.18-16.28,0-23.1-13.43-26.81-30.11-.8-3.57-2.02-16.36-3.12-18.27-.66-1.15-2.83-1.52-4.1-1.65-2.69-.31-8.04-.48-13.23-.48-4.64,0-9.16.14-11.51.45-.95.12-1.7.12-2.51.78-1.74,1.41-2.48,14.14-3.17,17.4-3.44,16.43-10.92,31.18-27.25,31.18-2.62,0-5.48-.38-8.58-1.2-9.2-2.42-14.14-7.33-16.24-16.67-4.45-19.9,8.52-59.81,15-80,7.62-23.74,21.69-64.58,50.41-68.06,1.8-.22,3.53-.32,5.22-.32M891.28,834.24c5.96,0,12.3-.79,14.48-1.94,1.79-6.58-6.78-31.66-12.82-33.47-.47-.14-.9-.2-1.31-.2-2.74,0-4.22,2.89-5.67,5.24-2.97,4.82-9.26,22.91-6.84,27.75.94,1.88,6.38,2.63,12.17,2.63M891.96,748.98c-2,0-4.06.13-6.14.38-14.97,1.81-28.02,11.95-38.78,30.13-7.92,13.38-13.33,28.67-17.99,43.19l-.31.97c-6.89,21.47-19.71,61.43-14.87,83.04,2.72,12.09,9.63,19.21,21.76,22.4,3.65.96,7.19,1.45,10.52,1.45,12.29,0,28.29-6.46,34.74-37.26.29-1.35.51-3.33.8-5.84.18-1.63.5-4.37.83-6.53,1.87-.11,4.55-.18,8.07-.18,4.19,0,8.27.12,10.86.3.34,2.11.71,4.81.95,6.57.43,3.16.8,5.89,1.17,7.56,2.39,10.77,5.6,18.5,10.1,24.32,6.03,7.81,14.17,11.77,24.18,11.77,3.39,0,7.04-.47,10.85-1.4,9.21-2.26,20.61-8.68,22.62-26.44,1.19-10.5-1.22-21.94-3.16-31.13l-.06-.3c-3.97-18.89-11.69-44.24-20.14-66.14-8.21-21.26-21.96-56.83-55.99-56.83h0ZM886.36,826.35c.69-4.76,3.41-13.24,5.48-17.34,1.06,1.96,2.34,4.76,3.62,8.43,1.25,3.58,2,6.57,2.42,8.8-1.83.2-4.1.35-6.61.35-2.09,0-3.71-.11-4.91-.24h0Z" fill="#401202"/><g id="Lights"><path d="M861.86,782.22c6.79-13.31,24.77-24.69,38.88-15.19.89.58.27,2-.75,1.75-15.18-3.53-26.75,3.54-36.85,14.28-.56.69-1.7-.05-1.28-.85h0Z" fill="#fff7f0"/><path d="M1240.57,782.22c6.79-13.31,24.77-24.69,38.88-15.19.89.58.27,2-.75,1.75-15.18-3.53-26.75,3.54-36.85,14.28-.56.69-1.7-.05-1.28-.85h0Z" fill="#fff7f0"/><path d="M1356.84,789c-1.24-7.7.42-15.24,7.57-19.46,8.83-4.7,18.95-6.97,28.9-5.72,5.62.66,10.96,2.2,16.17,3.98.3.1.45.42.35.72-.09.26-.35.41-.61.38-5.45-.72-10.84-1.64-16.17-1.82-8-.38-15.84,1.27-23.2,4.28-4.78,1.6-8.85,4.79-10.29,9.77-.71,2.43-.95,5.25-1.2,7.84-.06.89-1.42.93-1.53.04h0Z" fill="#fff7f0"/><path d="M1473,781.64c.57-7.89,5.84-14.79,13.72-16.57,2.26-.59,5.06-.57,7.3-.78,4.69-.34,9.4-.58,14.1-.76,4.71-.16,9.42-.27,14.15-.17.42,0,.76.36.75.79,0,.37-.28.68-.63.74-4.65.84-9.32,1.47-13.99,2.05-6.72.93-14.15,1.28-20.75,2.17-5.19,1.13-9.62,4.88-11.76,9.75,0,0-1.43,3.22-1.43,3.22-.34.81-1.63.44-1.47-.44h0Z" fill="#fff7f0"/><path d="M1575.02,784.1c.78-14.9,17.24-24.45,30.88-19.46.82.29.57,1.55-.3,1.5-13.41-.34-23.62,6.02-29.1,18.32-.32.77-1.56.47-1.49-.36h0Z" fill="#fff7f0"/></g><g id="M"><path d="M1148.56,913.55c-15.35,12-40.84,16.82-37.54-10.13,2.44-20.04,30.14-61.1,25.17-77.72-5.22-17.43-19.25,13.21-21.88,17.07-8.5,12.5-23.02,36.35-41.32,29.37-16.48-6.27-31.31-51.3-39.55-53.43-10.15-2.63-6.96,16.31-5.8,21.16,4.93,20.49,29.13,57.33,22.94,76.19-3.96,12.06-23.24,7.04-31.77,2.66-26.28-13.49-49.87-57.13-56.38-85.21-3.34-14.38-4.64-31.75-2.48-48.15,3.78,4.11,7.09,4.92,8.67,5.14,3.79.53,9.73-.64,14.56-2.72,3.25-1.39,5.8-3.14,8.58-2.1,2.23.82,3.38,2.9,3.64,3.4,2.22,4.18-1.09,7.13-.12,12.36.67,3.61,3.35,8.18,7.93,9.5,4.34,1.24,8.85-.85,11.34-3.68,2.68-3.04,2.9-6.71,2.99-8.94.38-8.85-5.27-12.53-3.27-16.33,2.09-3.95,10.06-3.43,11.36-3.34,6.95.45,11.6,4.06,15.51,6.68,8.98,6.02,20.11,13.61,30.63,12.7,13.69-1.18,17.84-15.34,27.89-12.6,4.16,1.12,8.09,3.97,16.03,4.75,1.28.13,2.68.04,4.34-.39,3.66-.94,13.78-5.91,17.46-7.03.2-.09,3.98-1.77,7.42.53,2.41,1.61,3.69,4.54,3.25,7.47,0,.35-1.12,5.82-1.21,6.3-.52,2.66-1.55,7.93.48,12.61.27.62,3.39,7.55,9.7,8,5.31.37,9.48-4.06,11.16-7.52,1.69-3.49,1.35-7,.93-11.47-.75-7.83-2.38-10.59-.93-11.8,1.83-1.54,5.46,2.22,14.21,4.23,4.32.99,8.16,1.88,11.97.38,2.63-1.03,4.56-2.95,5.95-4.99,4.91,45.29-18.19,100.72-51.85,127.05Z" fill="url(#linear-gradient-6)"/><path d="M1200.41,786.5c-1.39,2.04-3.32,3.96-5.95,4.99-3.81,1.5-7.65.61-11.97-.38-8.76-2-12.38-5.77-14.21-4.23-1.45,1.21.18,3.97.93,11.8.42,4.47.76,7.98-.93,11.47-1.68,3.47-5.85,7.89-11.16,7.52-6.31-.45-9.43-7.38-9.7-8-2.03-4.68-1-9.95-.48-12.61.09-.48,1.21-5.95,1.21-6.3.44-2.94-.83-5.86-3.25-7.47-3.45-2.3-7.22-.62-7.42-.53-3.68,1.12-13.8,6.09-17.46,7.03-1.65.43-3.06.52-4.34.39-7.93-.78-11.87-3.63-16.03-4.75-10.05-2.73-14.19,11.42-27.89,12.6-10.52.91-21.66-6.68-30.63-12.7-3.91-2.62-8.55-6.23-15.51-6.68-1.3-.09-9.27-.61-11.36,3.34-2,3.8,3.65,7.48,3.27,16.33-.09,2.22-.3,5.9-2.99,8.94-2.49,2.82-7,4.92-11.34,3.68-4.59-1.31-7.26-5.89-7.93-9.5-.97-5.23,2.34-8.18.12-12.36-.26-.5-1.4-2.57-3.64-3.4-2.78-1.03-5.34.71-8.58,2.1-4.83,2.08-10.77,3.26-14.56,2.72-1.58-.22-4.9-1.03-8.67-5.14,3.85-29.34,18.77-55.62,52.98-56.29,20.23-.4,37.81,9.78,50.46,24.8,3.68,4.37,15.05,24.49,17.76,24.96,3.23.55,15.25-22.12,18.85-26.5,28.62-34.68,79.14-32.91,95.53,12.49,2.46,6.81,4.07,14.1,4.88,21.67Z" fill="#fff7f0"/><path d="M955.84,778.87c5.47,9.87,11.03,11.32,13.23,11.62,3.79.53,9.72-.64,14.56-2.73,3.24-1.39,5.79-3.13,8.58-2.11,2.23.82,3.37,2.89,3.64,3.39,2.22,4.18-1.09,7.13-.12,12.37.67,3.6,3.35,8.18,7.94,9.5,4.33,1.24,8.84-.85,11.34-3.68,2.68-3.03,2.89-6.72,2.98-8.94.38-8.84-5.27-12.53-3.26-16.32,2.09-3.94,10.05-3.42,11.35-3.34,6.95.45,11.6,4.06,15.51,6.68,8.97,6.03,20.12,13.61,30.64,12.71,13.69-1.18,17.84-15.34,27.88-12.61,4.16,1.13,8.09,3.97,16.03,4.76,1.27.13,2.68.03,4.33-.39,3.66-.94,13.78-5.92,17.46-7.03.2-.09,3.98-1.77,7.42.53,2.42,1.62,3.68,4.54,3.24,7.47,0,.35-1.12,5.82-1.21,6.3-.52,2.66-1.55,7.93.48,12.61.27.62,3.38,7.55,9.7,8,5.3.38,9.47-4.06,11.15-7.52,1.69-3.49,1.36-7,.93-11.47-.75-7.83-2.38-10.58-.93-11.8,1.83-1.54,5.46,2.22,14.21,4.23,4.32.99,8.17,1.88,11.97.37,6.3-2.49,8.59-9.98,9.21-12.37" fill="none" stroke="#401202" stroke-linecap="round" stroke-linejoin="round" stroke-width="6.01"/><path d="M1147.42,728.32c20.13,0,39.18,11.78,48.11,36.51,17.21,47.62-7.7,118-46.98,148.72-7.13,5.58-16.47,9.61-24.08,9.61-8.75,0-15.23-5.32-13.47-19.74,2.45-20.05,30.15-61.1,25.17-77.72-1.14-3.81-2.7-5.32-4.47-5.32-6.33,0-15.35,19.37-17.41,22.39-7.45,10.95-19.53,30.62-34.72,30.62-2.14,0-4.35-.39-6.61-1.25-16.48-6.28-31.31-51.3-39.55-53.44-.65-.17-1.25-.25-1.8-.25-7.95,0-5.09,16.87-4,21.4,4.93,20.49,29.14,57.33,22.94,76.2-1.84,5.61-7.01,7.53-12.86,7.53-6.72,0-14.35-2.52-18.91-4.86-26.28-13.49-49.87-57.13-56.38-85.21-9.3-40.12-2.84-103.39,50.49-104.44.38,0,.77-.01,1.15-.01,19.76,0,36.9,10.07,49.31,24.82,3.67,4.36,15.05,24.49,17.76,24.96.04,0,.08.01.12.01,3.39,0,15.17-22.18,18.73-26.51,13.03-15.79,30.6-24.02,47.42-24.02M1147.42,717.66c-20.73,0-41.01,10.17-55.64,27.89-1.63,1.97-3.54,5.07-6.78,10.38-.98,1.6-2.27,3.71-3.6,5.83-.89-1.37-1.74-2.71-2.46-3.83-3.45-5.41-5.66-8.84-7.41-10.92-15.53-18.45-35.94-28.61-57.46-28.61-.45,0-.9,0-1.36.01-19.5.38-35.74,8.19-46.95,22.59-20.32,26.1-20.09,67.44-13.72,94.92,6.42,27.7,30.53,76.18,61.89,92.28,5.69,2.92,14.92,6.04,23.78,6.04,11.51,0,19.89-5.42,22.99-14.86,5.32-16.18-4.12-37.38-13.24-57.89-.55-1.24-1.1-2.47-1.64-3.68,6.62,10.98,14.14,20.78,23.36,24.29,3.4,1.29,6.9,1.95,10.4,1.95,16.99,0,29.2-14.58,37.89-27-1.29,2.94-2.64,5.91-3.97,8.84-6.09,13.46-11.85,26.16-13.08,36.23-1.25,10.24.69,18.34,5.76,24.07,4.41,4.98,10.73,7.61,18.28,7.61,9.68,0,21.14-4.44,30.64-11.87,20.73-16.21,38.31-42.86,48.23-73.1,10.39-31.68,11.18-62.81,2.2-87.64-4.96-13.74-13.15-25-23.66-32.56-10-7.19-21.92-10.99-34.47-10.99h0Z" fill="#401202"/></g></g></svg>